<svg width="172" height="24" viewBox="0 0 172 24" fill="none" xmlns="http://www.w3.org/2000/svg">
<path fill-rule="evenodd" clip-rule="evenodd" d="M5.67413 0.944524C6.07688 0.984549 6.39111 1.3168 6.39111 1.72044V6.48255C6.60312 6.86143 6.83851 7.21784 7.09793 7.54553C7.69768 8.30306 8.40456 8.89738 9.17395 9.29991C9.94264 9.70205 10.7612 9.90603 11.5839 9.90603C12.4065 9.90603 13.2251 9.70205 13.9938 9.29991C14.7632 8.89738 15.4701 8.30306 16.0698 7.54553C16.3292 7.21784 16.5646 6.86143 16.7767 6.48255V1.72044C16.7767 1.28981 17.1343 0.940717 17.5755 0.940717H19.1733L19.2552 0.944524C19.658 0.984549 19.9722 1.3168 19.9722 1.72044V12.6366H22.3689L22.4508 12.6404C22.8535 12.6804 23.1678 13.0127 23.1678 13.4163V14.9758L23.1639 15.0557C23.1228 15.4488 22.7824 15.7555 22.3689 15.7555H19.9722V18.0947C19.9722 18.5253 19.6145 18.8744 19.1733 18.8744H17.5755C17.1343 18.8744 16.7767 18.5253 16.7767 18.0947V15.7555H6.39111V18.0947C6.39111 18.5253 6.03343 18.8744 5.59222 18.8744H3.99444C3.55323 18.8744 3.19555 18.5253 3.19555 18.0947V15.7555H0.798888C0.385323 15.7555 0.0449091 15.4488 0.00390082 15.0557L0 14.9758V13.4163C5.26142e-09 12.9857 0.357674 12.6366 0.798888 12.6366H3.19555V1.72044C3.19555 1.28981 3.55323 0.940717 3.99444 0.940717H5.59222L5.67413 0.944524ZM3.99444 18.0947H5.59222V15.7555H3.99444V18.0947ZM17.5755 15.7555V18.0947H19.1733V15.7555H17.5755ZM0.798888 14.9758H22.3689V13.4163H0.798888V14.9758ZM17.5755 12.6366H19.1733V1.72044H17.5755V12.6366ZM16.7018 8.0222C16.4755 8.30793 16.2326 8.57272 15.9778 8.81792V12.6366H16.7767V7.92321C16.7514 7.95608 16.7274 7.98979 16.7018 8.0222ZM3.99444 12.6366H5.59222V1.72044H3.99444V12.6366ZM6.39111 12.6366H7.18999V8.81792C6.93517 8.57272 6.69222 8.30793 6.466 8.0222C6.44034 7.98979 6.41634 7.95608 6.39111 7.92321V12.6366ZM7.98888 12.6366H8.78777V9.98141C8.5119 9.83653 8.24612 9.66918 7.98888 9.48418V12.6366ZM9.58666 12.6366H10.3855V10.5578C10.1157 10.5011 9.84922 10.4253 9.58666 10.3309V12.6366ZM11.9833 10.6705C11.8505 10.6797 11.7174 10.6858 11.5839 10.6858C11.4504 10.6858 11.3173 10.6797 11.1844 10.6705V12.6366H11.9833V10.6705ZM13.5811 10.3309C13.3185 10.4253 13.0521 10.5011 12.7822 10.5578V12.6366H13.5811V10.3309ZM15.1789 9.48418C14.9216 9.66918 14.6559 9.83653 14.38 9.98141V12.6366H15.1789V9.48418Z" fill="#4F46E5"/>
<path d="M10.785 1.72044C11.0056 1.72044 11.1844 1.89499 11.1844 2.1103V8.3481C11.1844 8.56342 11.0056 8.73796 10.785 8.73796C10.5644 8.73796 10.3855 8.56342 10.3855 8.3481V2.1103C10.3855 1.89499 10.5644 1.72044 10.785 1.72044Z" fill="#4F46E5"/>
<path d="M12.3828 1.72044C12.6034 1.72044 12.7822 1.89499 12.7822 2.1103V8.3481C12.7822 8.56342 12.6034 8.73796 12.3828 8.73796C12.1622 8.73796 11.9833 8.56342 11.9833 8.3481V2.1103C11.9833 1.89499 12.1622 1.72044 12.3828 1.72044Z" fill="#4F46E5"/>
<path d="M9.18721 3.27989C9.40782 3.27989 9.58666 3.45444 9.58666 3.66975V6.00893C9.58666 6.22424 9.40782 6.39879 9.18721 6.39879C8.96661 6.39879 8.78777 6.22424 8.78777 6.00893V3.66975C8.78777 3.45444 8.96661 3.27989 9.18721 3.27989Z" fill="#4F46E5"/>
<path d="M13.9805 3.27989C14.2011 3.27989 14.38 3.45444 14.38 3.66975V6.00893C14.38 6.22424 14.2011 6.39879 13.9805 6.39879C13.7599 6.39879 13.5811 6.22424 13.5811 6.00893V3.66975C13.5811 3.45444 13.7599 3.27989 13.9805 3.27989Z" fill="#4F46E5"/>
<path d="M7.58944 4.05962C7.81004 4.05962 7.98888 4.23416 7.98888 4.44948V5.2292C7.98888 5.44452 7.81004 5.61907 7.58944 5.61907C7.36883 5.61907 7.18999 5.44452 7.18999 5.2292V4.44948C7.18999 4.23416 7.36883 4.05962 7.58944 4.05962Z" fill="#4F46E5"/>
<path d="M15.5783 4.05962C15.7989 4.05962 15.9778 4.23416 15.9778 4.44948V5.2292C15.9778 5.44452 15.7989 5.61907 15.5783 5.61907C15.3577 5.61907 15.1789 5.44452 15.1789 5.2292V4.44948C15.1789 4.23416 15.3577 4.05962 15.5783 4.05962Z" fill="#4F46E5"/>
<path d="M166.466 18.9632C165.419 18.9632 164.48 18.7978 163.649 18.467C162.818 18.1279 162.111 17.6606 161.53 17.0651C160.956 16.4696 160.516 15.779 160.208 14.9933C159.901 14.1994 159.747 13.3558 159.747 12.4625V11.9663C159.747 10.949 159.893 10.0186 160.183 9.175C160.474 8.3314 160.89 7.59945 161.43 6.97916C161.978 6.35887 162.643 5.88331 163.424 5.55248C164.205 5.21339 165.086 5.04384 166.067 5.04384C167.022 5.04384 167.87 5.20098 168.61 5.51527C169.349 5.82955 169.968 6.27616 170.467 6.8551C170.974 7.43404 171.356 8.12877 171.614 8.93928C171.871 9.74153 172 10.6348 172 11.619V13.1077H161.28V10.7257H168.472V10.4528C168.472 9.95656 168.381 9.51409 168.198 9.12537C168.024 8.72838 167.758 8.4141 167.401 8.18253C167.043 7.95095 166.586 7.83516 166.029 7.83516C165.556 7.83516 165.149 7.93855 164.808 8.14531C164.467 8.35207 164.189 8.64154 163.973 9.01372C163.765 9.3859 163.607 9.82424 163.499 10.3287C163.399 10.825 163.349 11.3708 163.349 11.9663V12.4625C163.349 13.0001 163.424 13.4964 163.574 13.9513C163.732 14.4061 163.952 14.799 164.234 15.1298C164.525 15.4606 164.874 15.717 165.282 15.899C165.697 16.0809 166.167 16.1719 166.69 16.1719C167.338 16.1719 167.941 16.0478 168.497 15.7997C169.062 15.5433 169.549 15.1588 169.956 14.646L171.701 16.5317C171.418 16.9369 171.032 17.3256 170.542 17.6978C170.06 18.07 169.478 18.376 168.797 18.6159C168.115 18.8474 167.338 18.9632 166.466 18.9632Z" fill="#4F46E5"/>
<path d="M154.213 5.29196H157.467V18.2685C157.467 19.4925 157.193 20.5305 156.644 21.3824C156.104 22.2425 155.348 22.8917 154.375 23.3301C153.403 23.7767 152.273 24 150.985 24C150.42 24 149.822 23.9256 149.19 23.7767C148.567 23.6278 147.969 23.3962 147.395 23.082C146.83 22.7677 146.357 22.3707 145.974 21.891L147.557 19.782C147.973 20.2617 148.455 20.6339 149.003 20.8985C149.552 21.1715 150.158 21.3079 150.823 21.3079C151.471 21.3079 152.02 21.188 152.468 20.9482C152.917 20.7166 153.262 20.3734 153.503 19.9185C153.744 19.4719 153.864 18.9301 153.864 18.2933V8.39343L154.213 5.29196ZM145.139 12.1648V11.9043C145.139 10.8787 145.264 9.94829 145.513 9.11297C145.771 8.26937 146.132 7.54569 146.597 6.94194C147.071 6.33819 147.645 5.8709 148.318 5.54008C148.991 5.20926 149.751 5.04384 150.599 5.04384C151.496 5.04384 152.248 5.20926 152.855 5.54008C153.461 5.8709 153.96 6.34232 154.351 6.95435C154.741 7.5581 155.044 8.2735 155.26 9.10056C155.485 9.91935 155.659 10.8167 155.784 11.7926V12.3633C155.659 13.2979 155.472 14.1663 155.223 14.9685C154.974 15.7708 154.646 16.4738 154.238 17.0775C153.831 17.673 153.324 18.1362 152.718 18.467C152.119 18.7978 151.405 18.9632 150.574 18.9632C149.743 18.9632 148.991 18.7937 148.318 18.4546C147.653 18.1155 147.084 17.6399 146.61 17.0279C146.136 16.4159 145.771 15.6963 145.513 14.8693C145.264 14.0422 145.139 13.1407 145.139 12.1648ZM148.729 11.9043V12.1648C148.729 12.7189 148.783 13.2358 148.891 13.7155C148.999 14.1952 149.165 14.6212 149.39 14.9933C149.622 15.3573 149.909 15.6426 150.25 15.8493C150.599 16.0478 151.01 16.1471 151.484 16.1471C152.14 16.1471 152.676 16.0106 153.092 15.7377C153.507 15.4565 153.819 15.0719 154.026 14.584C154.234 14.096 154.355 13.5336 154.388 12.8968V11.2716C154.371 10.7505 154.301 10.2833 154.176 9.86972C154.051 9.44792 153.877 9.08815 153.653 8.79041C153.428 8.49267 153.137 8.2611 152.78 8.09569C152.423 7.93027 151.999 7.84757 151.509 7.84757C151.035 7.84757 150.624 7.95509 150.275 8.17012C149.934 8.37689 149.647 8.66222 149.415 9.02613C149.19 9.39003 149.02 9.8201 148.903 10.3163C148.787 10.8043 148.729 11.3336 148.729 11.9043Z" fill="#4F46E5"/>
<path d="M139.257 15.7874V0.940717H142.872V18.7151H139.618L139.257 15.7874ZM130.731 12.1648V11.9043C130.731 10.8788 130.847 9.94833 131.08 9.11301C131.313 8.26941 131.653 7.54573 132.102 6.94198C132.551 6.33823 133.103 5.87094 133.76 5.54012C134.416 5.2093 135.164 5.04388 136.003 5.04388C136.793 5.04388 137.483 5.2093 138.073 5.54012C138.671 5.87094 139.178 6.34236 139.593 6.95439C140.017 7.55814 140.358 8.27354 140.615 9.1006C140.873 9.91939 141.06 10.8167 141.176 11.7927V12.3633C141.06 13.2979 140.873 14.1663 140.615 14.9686C140.358 15.7708 140.017 16.4738 139.593 17.0776C139.178 17.6731 138.671 18.1362 138.073 18.467C137.474 18.7978 136.776 18.9633 135.979 18.9633C135.139 18.9633 134.391 18.7937 133.735 18.4546C133.087 18.1155 132.538 17.64 132.09 17.0279C131.649 16.4159 131.313 15.6964 131.08 14.8693C130.847 14.0423 130.731 13.1408 130.731 12.1648ZM134.321 11.9043V12.1648C134.321 12.719 134.362 13.2359 134.445 13.7156C134.537 14.1953 134.682 14.6212 134.882 14.9934C135.089 15.3573 135.355 15.6426 135.679 15.8494C136.012 16.0479 136.415 16.1471 136.888 16.1471C137.503 16.1471 138.01 16.0107 138.409 15.7377C138.808 15.4565 139.111 15.072 139.319 14.584C139.535 14.096 139.66 13.5336 139.693 12.8968V11.2716C139.668 10.7506 139.593 10.2833 139.469 9.86976C139.352 9.44796 139.178 9.08819 138.945 8.79045C138.721 8.49271 138.438 8.26114 138.098 8.09573C137.765 7.93031 137.37 7.84761 136.913 7.84761C136.448 7.84761 136.049 7.95513 135.717 8.17016C135.384 8.37693 135.114 8.66226 134.907 9.02617C134.707 9.39007 134.558 9.82014 134.458 10.3164C134.366 10.8043 134.321 11.3337 134.321 11.9043Z" fill="#4F46E5"/>
<path d="M128.324 5.2973V18.7204H124.722V5.2973H128.324ZM124.498 1.79885C124.498 1.2778 124.681 0.847734 125.046 0.50864C125.412 0.169547 125.902 0 126.517 0C127.124 0 127.61 0.169547 127.975 0.50864C128.349 0.847734 128.536 1.2778 128.536 1.79885C128.536 2.3199 128.349 2.74997 127.975 3.08906C127.61 3.42815 127.124 3.5977 126.517 3.5977C125.902 3.5977 125.412 3.42815 125.046 3.08906C124.681 2.74997 124.498 2.3199 124.498 1.79885Z" fill="#4F46E5"/>
<path d="M118.776 8.21974V18.7151H115.186V5.29196H118.564L118.776 8.21974ZM122.84 5.20512L122.777 8.51749C122.603 8.49267 122.391 8.472 122.142 8.45546C121.901 8.43064 121.681 8.41824 121.481 8.41824C120.974 8.41824 120.534 8.4844 120.16 8.61673C119.794 8.74079 119.487 8.92688 119.237 9.175C118.997 9.42311 118.814 9.72499 118.689 10.0806C118.573 10.4363 118.506 10.8415 118.49 11.2964L117.767 11.0731C117.767 10.2047 117.854 9.40657 118.028 8.67876C118.203 7.94268 118.456 7.30171 118.789 6.75585C119.129 6.20999 119.545 5.7882 120.035 5.49046C120.526 5.19271 121.086 5.04384 121.718 5.04384C121.917 5.04384 122.121 5.06039 122.329 5.09347C122.536 5.11828 122.707 5.1555 122.84 5.20512Z" fill="#4F46E5"/>
<path d="M106.211 10.7861H101.55L101.525 8.23048H105.439C106.128 8.23048 106.693 8.14364 107.134 7.96995C107.574 7.788 107.902 7.52748 108.119 7.18838C108.343 6.84102 108.455 6.41922 108.455 5.92299C108.455 5.36059 108.347 4.90571 108.131 4.55834C107.923 4.21098 107.595 3.95873 107.146 3.80158C106.706 3.64444 106.137 3.56587 105.439 3.56587H102.846V18.7134H99.1065V0.650496H105.439C106.494 0.650496 107.437 0.749743 108.268 0.948236C109.107 1.14673 109.818 1.44861 110.4 1.85386C110.981 2.25912 111.426 2.7719 111.733 3.39219C112.041 4.00421 112.194 4.73202 112.194 5.57562C112.194 6.31997 112.024 7.00643 111.683 7.635C111.351 8.26356 110.823 8.77633 110.1 9.17332C109.386 9.57031 108.451 9.78948 107.296 9.83083L106.211 10.7861ZM106.049 18.7134H100.528L101.986 15.8105H106.049C106.706 15.8105 107.242 15.7071 107.657 15.5003C108.073 15.2853 108.38 14.9958 108.58 14.6319C108.779 14.268 108.879 13.8503 108.879 13.3789C108.879 12.8496 108.787 12.3906 108.605 12.0019C108.43 11.6131 108.148 11.3154 107.757 11.1086C107.366 10.8936 106.851 10.7861 106.211 10.7861H102.609L102.634 8.23048H107.121L107.981 9.23535C109.087 9.21881 109.976 9.41317 110.649 9.81843C111.33 10.2154 111.825 10.7323 112.132 11.3692C112.448 12.006 112.606 12.6883 112.606 13.4161C112.606 14.574 112.352 15.5499 111.845 16.3439C111.339 17.1296 110.595 17.721 109.614 18.1179C108.642 18.5149 107.454 18.7134 106.049 18.7134Z" fill="#4F46E5"/>
<path d="M91.3839 0.940717V18.8744H87.5226V0.940717H91.3839Z" fill="#4F46E5"/>
<path d="M80.7302 15.6864V9.70674C80.7302 9.27667 80.6595 8.90863 80.5183 8.60262C80.377 8.28834 80.1568 8.04435 79.8576 7.87067C79.5668 7.69699 79.1887 7.61015 78.7233 7.61015C78.3245 7.61015 77.9796 7.68045 77.6888 7.82105C77.3979 7.95338 77.1736 8.14774 77.0157 8.40412C76.8578 8.65224 76.7788 8.94585 76.7788 9.28494H73.189C73.189 8.71427 73.322 8.17255 73.5879 7.65977C73.8538 7.147 74.2402 6.69625 74.7471 6.30753C75.254 5.91055 75.8564 5.6004 76.5545 5.37709C77.2608 5.15379 78.0502 5.04214 78.9228 5.04214C79.9698 5.04214 80.9005 5.21582 81.7149 5.56318C82.5292 5.91055 83.1691 6.43159 83.6344 7.12632C84.1081 7.82105 84.3449 8.68946 84.3449 9.73155V15.4755C84.3449 16.2115 84.3906 16.8153 84.482 17.2867C84.5734 17.7499 84.7064 18.1551 84.8809 18.5025V18.7134H81.2537C81.0792 18.3495 80.9462 17.8946 80.8548 17.3487C80.7717 16.7946 80.7302 16.2405 80.7302 15.6864ZM81.2038 10.5379L81.2287 12.5601H79.2219C78.7483 12.5601 78.3369 12.6138 77.9879 12.7214C77.6389 12.8289 77.3522 12.9819 77.1279 13.1804C76.9035 13.3706 76.7373 13.5939 76.6293 13.8503C76.5295 14.1067 76.4797 14.3879 76.4797 14.6939C76.4797 14.9999 76.5503 15.277 76.6916 15.5251C76.8328 15.7649 77.0364 15.9552 77.3024 16.0958C77.5683 16.2281 77.8799 16.2943 78.2372 16.2943C78.7773 16.2943 79.2469 16.1867 79.6457 15.9717C80.0446 15.7567 80.3521 15.492 80.5681 15.1777C80.7925 14.8634 80.9088 14.5657 80.9171 14.2845L81.8644 15.798C81.7315 16.1371 81.5487 16.4886 81.316 16.8525C81.0916 17.2164 80.8049 17.5596 80.4559 17.8822C80.1069 18.1965 79.6873 18.457 79.197 18.6638C78.7067 18.8623 78.125 18.9615 77.4519 18.9615C76.596 18.9615 75.8191 18.792 75.121 18.4529C74.4313 18.1055 73.8829 17.6299 73.4757 17.0262C73.0768 16.4142 72.8774 15.7194 72.8774 14.942C72.8774 14.239 73.0103 13.6146 73.2762 13.0687C73.5422 12.5229 73.9327 12.0639 74.4479 11.6917C74.9714 11.3112 75.6238 11.0259 76.4049 10.8357C77.186 10.6372 78.0918 10.5379 79.1222 10.5379H81.2038Z" fill="#4F46E5"/>
<path d="M65.7092 16.1702C66.1496 16.1702 66.5402 16.0875 66.8809 15.9221C67.2216 15.7484 67.4875 15.5085 67.6786 15.2025C67.878 14.8883 67.9819 14.5202 67.9902 14.0984H71.3682C71.3599 15.0413 71.1064 15.8807 70.6078 16.6168C70.1092 17.3446 69.4403 17.9194 68.601 18.3412C67.7617 18.7547 66.8227 18.9615 65.784 18.9615C64.7369 18.9615 63.8229 18.7878 63.0417 18.4405C62.2689 18.0931 61.6249 17.6134 61.1097 17.0014C60.5945 16.3811 60.2081 15.6616 59.9505 14.8428C59.6929 14.0157 59.5641 13.1308 59.5641 12.1879V11.8281C59.5641 10.877 59.6929 9.99207 59.9505 9.17329C60.2081 8.34623 60.5945 7.62669 61.1097 7.01467C61.6249 6.39437 62.2689 5.91055 63.0417 5.56318C63.8145 5.21582 64.7203 5.04214 65.759 5.04214C66.8643 5.04214 67.8323 5.25304 68.6633 5.67483C69.5026 6.09663 70.1591 6.70039 70.6328 7.48609C71.1147 8.26352 71.3599 9.18569 71.3682 10.2526H67.9902C67.9819 9.80599 67.8864 9.40073 67.7035 9.03682C67.529 8.67292 67.2714 8.38345 66.9307 8.16841C66.5983 7.94511 66.187 7.83345 65.6967 7.83345C65.1732 7.83345 64.7452 7.94511 64.4129 8.16841C64.0805 8.38345 63.8229 8.68119 63.64 9.06163C63.4572 9.43381 63.3284 9.85974 63.2536 10.3394C63.1872 10.8109 63.1539 11.3071 63.1539 11.8281V12.1879C63.1539 12.709 63.1872 13.2093 63.2536 13.689C63.3201 14.1687 63.4448 14.5946 63.6276 14.9668C63.8187 15.339 64.0805 15.6326 64.4129 15.8476C64.7452 16.0627 65.1774 16.1702 65.7092 16.1702Z" fill="#4F46E5"/>
<path d="M45.1561 12.1383V11.8778C45.1561 10.8936 45.2974 9.98794 45.5799 9.16088C45.8625 8.32555 46.2738 7.60188 46.814 6.98986C47.3541 6.37783 48.0189 5.90228 48.8083 5.56318C49.5977 5.21582 50.5035 5.04214 51.5256 5.04214C52.5477 5.04214 53.4576 5.21582 54.2554 5.56318C55.0531 5.90228 55.7221 6.37783 56.2622 6.98986C56.8107 7.60188 57.2262 8.32555 57.5087 9.16088C57.7912 9.98794 57.9325 10.8936 57.9325 11.8778V12.1383C57.9325 13.1142 57.7912 14.0198 57.5087 14.8552C57.2262 15.6822 56.8107 16.4059 56.2622 17.0262C55.7221 17.6382 55.0573 18.1138 54.2679 18.4529C53.4784 18.792 52.5727 18.9615 51.5505 18.9615C50.5284 18.9615 49.6185 18.792 48.8208 18.4529C48.0313 18.1138 47.3624 17.6382 46.814 17.0262C46.2738 16.4059 45.8625 15.6822 45.5799 14.8552C45.2974 14.0198 45.1561 13.1142 45.1561 12.1383ZM48.746 11.8778V12.1383C48.746 12.7007 48.7958 13.2259 48.8956 13.7138C48.9953 14.2018 49.1532 14.6319 49.3692 15.004C49.5936 15.3679 49.8844 15.6533 50.2418 15.86C50.5991 16.0668 51.0353 16.1702 51.5505 16.1702C52.0491 16.1702 52.4771 16.0668 52.8344 15.86C53.1917 15.6533 53.4784 15.3679 53.6945 15.004C53.9105 14.6319 54.0684 14.2018 54.1681 13.7138C54.2762 13.2259 54.3302 12.7007 54.3302 12.1383V11.8778C54.3302 11.3319 54.2762 10.8191 54.1681 10.3394C54.0684 9.85147 53.9064 9.4214 53.682 9.04923C53.466 8.66878 53.1793 8.37104 52.822 8.15601C52.4646 7.94097 52.0325 7.83345 51.5256 7.83345C51.0187 7.83345 50.5866 7.94097 50.2293 8.15601C49.8803 8.37104 49.5936 8.66878 49.3692 9.04923C49.1532 9.4214 48.9953 9.85147 48.8956 10.3394C48.7958 10.8191 48.746 11.3319 48.746 11.8778Z" fill="#4F46E5"/>
<path d="M36.3933 14.9443L40.6687 0.652763H44.8319L38.5123 18.7157H35.7701L36.3933 14.9443ZM32.4544 0.652763L36.7174 14.9443L37.3655 18.7157H34.5984L28.3161 0.652763H32.4544Z" fill="#4F46E5"/>
</svg>
